<svg xmlns="http://www.w3.org/2000/svg" version="1.1" viewBox="0 0 512 512">
  <defs>
    <style>
      .st0 { fill: #f19a2c; }
      .st1 { fill: #ece7d6; }
      .st3 { fill: #142528; }
    </style>
  </defs>
  <g>
    <path class="st3" d="M386.37,409.62l-260.29.03c-12.04,0-23.47-8.57-23.51-21.31l-.27-108.36V123.67c1.47-12.96,11.88-21.98,24.8-21.23l259.3-.03c13.53,0,23.24,10.32,23.24,24.71l-.07,262.51c-2.24,11.82-11.12,19.98-23.19,19.98ZM300.16,203.81c5.73,4.56,13.68,4.22,18.92-.48,5.09-4.56,6.67-12.23,3.18-18.27s-10.26-9.11-17.27-7c-5.39,1.63-9.2,6.34-10.05,11.27-.97,5.66.78,10.94,5.22,14.48ZM267.99,304.25c7.42,0,13.94-4.27,17.72-10.98-4.91-2.31-7.49-6.57-9.49-11.67l-32.81-83.98c-1.28-3.27-4.78-4.43-7.92-4.42l-45.06.07c-1.28,0-2.09,1.8-2.21,2.63-.15.98.33,2.28,1.35,3.04,6.58,4.88,10.55,11.48,13.65,18.94l24.18,58.18,6,14.11c3.15,7.41,9.79,13.44,18.06,14.08h16.52ZM283.5,282.62c1.22,1.27,5.33,2.6,6.35.14l20.28-48.61,10.71-26.71c-5.96,4.2-12.3,5-19.06,2.25-4.97-2.02-9.11-6.66-10.72-13.03l-10.77,31.17-9.67,27.21,8.67,20.13c1.18,2.75,2.02,5.16,4.22,7.46Z"/>
    <path class="st1" d="M267.99,304.25h-16.52c-8.27-.66-14.91-6.68-18.06-14.09l-6-14.11-24.18-58.18c-3.1-7.46-7.08-14.06-13.65-18.94-1.02-.76-1.5-2.06-1.35-3.04.12-.82.93-2.62,2.21-2.63l45.06-.07c3.14,0,6.64,1.16,7.92,4.42l32.81,83.98c1.99,5.1,4.58,9.36,9.49,11.67-3.78,6.71-10.3,10.98-17.72,10.98Z"/>
    <path class="st1" d="M283.5,282.62c-2.2-2.3-3.04-4.71-4.22-7.46l-8.67-20.13,9.67-27.21,10.77-31.17c1.61,6.37,5.75,11.01,10.72,13.03,6.76,2.75,13.09,1.96,19.06-2.25l-10.71,26.71-20.28,48.61c-1.03,2.46-5.14,1.13-6.35-.14Z"/>
    <path class="st0" d="M300.16,203.81c-4.44-3.53-6.18-8.81-5.22-14.48.84-4.94,4.66-9.65,10.05-11.27,7-2.11,13.81,1.02,17.27,7s1.91,13.71-3.18,18.27c-5.24,4.7-13.19,5.04-18.92.48Z"/>
  </g>
</svg>
