<svg xmlns="http://www.w3.org/2000/svg" viewBox="0 0 160 160">
  <rect width="160" height="160" fill="#ffffff"/>
  <path fill="#222222" d="M105.66,36.51v3.89h-9.36c-21.95,0-39.78,14.79-39.78,33.05v52.55h-4.68v-52.55c0-20.4,19.94-36.94,44.46-36.94h9.36ZM96.3,44.3h9.36v3.89h-9.36c-16.8,0-30.42,11.33-30.42,25.26v52.55h-4.68v-52.55c0-16.12,15.72-29.16,35.1-29.16ZM96.3,52.08h9.36v3.89h-9.36c-11.61,0-21.06,7.82-21.06,17.48v52.55h-4.68v-52.55c0-11.79,11.51-21.37,25.74-21.37ZM96.3,59.87h9.36v3.89h-9.36c-6.46,0-11.7,4.32-11.7,9.69v52.55h-4.68v-52.55c0-7.51,7.35-13.58,16.38-13.58ZM96.3,67.61h9.36v3.89h-9.36c-1.31,0-2.34.9-2.34,1.95v1.95h11.7v3.89h-11.7v3.89h11.7v3.89h-11.7v3.89h11.7v3.89h-11.7v3.89h11.7v3.89h-11.7v23.36h-4.68v-52.55c0-3.19,3.13-5.84,7.02-5.84Z"/>
</svg>
