<svg xmlns="http://www.w3.org/2000/svg" viewBox="167 159 164 164">
  <!-- Nur das "v" + oranger Punkt, transparenter Hintergrund, eng zugeschnitten
       — fuer die Navbar, damit das V gleich gross wie die anderen Icons ist. -->
  <path fill="#ece7d6" d="M267.99,304.25h-16.52c-8.27-.66-14.91-6.68-18.06-14.09l-6-14.11-24.18-58.18c-3.1-7.46-7.08-14.06-13.65-18.94-1.02-.76-1.5-2.06-1.35-3.04.12-.82.93-2.62,2.21-2.63l45.06-.07c3.14,0,6.64,1.16,7.92,4.42l32.81,83.98c1.99,5.1,4.58,9.36,9.49,11.67-3.78,6.71-10.3,10.98-17.72,10.98Z"/>
  <path fill="#ece7d6" d="M283.5,282.62c-2.2-2.3-3.04-4.71-4.22-7.46l-8.67-20.13,9.67-27.21,10.77-31.17c1.61,6.37,5.75,11.01,10.72,13.03,6.76,2.75,13.09,1.96,19.06-2.25l-10.71,26.71-20.28,48.61c-1.03,2.46-5.14,1.13-6.35-.14Z"/>
  <path fill="#f19a2c" d="M300.16,203.81c-4.44-3.53-6.18-8.81-5.22-14.48.84-4.94,4.66-9.65,10.05-11.27,7-2.11,13.81,1.02,17.27,7s1.91,13.71-3.18,18.27c-5.24,4.7-13.19,5.04-18.92.48Z"/>
</svg>
